<svg width="37" height="37" fill="none" xmlns="http://www.w3.org/2000/svg"><path d="M8.748 6.943v2.313H33.53v4.577l-2.565 8.141h-20.13L7.945 1.16h-6.79v2.313H5.93l2.89 20.815h23.84l3.183-10.098V6.943H8.748Zm4.042 19.676a4.63 4.63 0 0 0-4.625 4.625 4.625 4.625 0 1 0 4.625-4.625Zm0 6.937a2.312 2.312 0 1 1 0-4.624 2.312 2.312 0 0 1 0 4.624Zm16.187-6.937a4.63 4.63 0 0 0-4.625 4.625 4.625 4.625 0 1 0 4.625-4.625Zm0 6.937a2.312 2.312 0 1 1 0-4.624 2.312 2.312 0 0 1 0 4.624Z" fill="#D45555"/><path fill="#D45555" d="M9 8h25v10H9z"/><path fill="#D45555" d="M10 13h23v9H10z"/><circle cx="29" cy="31" r="3" fill="#D45555"/><circle cx="13" cy="31" r="3" fill="#D45555"/></svg>