<svg width="63" height="63" fill="none" xmlns="http://www.w3.org/2000/svg"><g clip-path="url(#a)"><path fill-rule="evenodd" clip-rule="evenodd" d="M0 31.676C0 47.336 11.374 60.359 26.25 63V40.25h-7.875V31.5h7.875v-7c0-7.876 5.074-12.25 12.25-12.25 2.274 0 4.726.35 7 .7V21h-4.025c-3.85 0-4.725 1.924-4.725 4.376V31.5h8.4l-1.4 8.75h-7V63C51.626 60.36 63 47.34 63 31.676 63 14.254 48.825 0 31.5 0S0 14.254 0 31.676Z" fill="#19191B"/></g><defs><clipPath id="a"><path fill="#fff" d="M0 0h63v63H0z"/></clipPath></defs></svg>