<svg width="63" height="63" fill="none" xmlns="http://www.w3.org/2000/svg"><path fill-rule="evenodd" clip-rule="evenodd" d="M19.596 2.798c3.079-.142 4.06-.173 11.904-.173 7.843 0 8.825.034 11.902.173 3.076.14 5.176.63 7.014 1.342a14.205 14.205 0 0 1 5.113 3.333 14.104 14.104 0 0 1 3.329 5.111c.714 1.838 1.202 3.938 1.344 7.009.142 3.084.173 4.066.173 11.907 0 7.843-.034 8.825-.173 11.904-.14 3.072-.63 5.172-1.344 7.01a14.164 14.164 0 0 1-3.329 5.115 14.157 14.157 0 0 1-5.113 3.329c-1.838.714-3.938 1.202-7.009 1.344-3.082.142-4.063.173-11.907.173-7.843 0-8.825-.034-11.904-.173-3.072-.14-5.172-.63-7.01-1.344a14.166 14.166 0 0 1-5.115-3.329 14.153 14.153 0 0 1-3.331-5.113c-.712-1.838-1.2-3.938-1.342-7.009-.142-3.084-.173-4.066-.173-11.907 0-7.843.034-8.825.173-11.902.14-3.076.63-5.176 1.342-7.014a14.165 14.165 0 0 1 3.333-5.113 14.154 14.154 0 0 1 5.111-3.331c1.838-.712 3.938-1.2 7.009-1.342h.003Zm23.572 5.198c-3.045-.14-3.958-.168-11.668-.168-7.71 0-8.623.029-11.668.168-2.817.128-4.345.598-5.363.995-1.347.525-2.31 1.147-3.32 2.157A8.957 8.957 0 0 0 8.99 14.47c-.397 1.019-.867 2.546-.995 5.363-.14 3.045-.168 3.958-.168 11.668 0 7.71.029 8.623.168 11.668.128 2.817.598 4.345.995 5.363a8.964 8.964 0 0 0 2.157 3.32 8.964 8.964 0 0 0 3.321 2.158c1.019.397 2.546.867 5.363.995 3.045.14 3.956.168 11.668.168s8.623-.029 11.668-.168c2.817-.128 4.345-.598 5.363-.995 1.347-.525 2.31-1.147 3.32-2.157a8.963 8.963 0 0 0 2.158-3.321c.397-1.018.867-2.546.995-5.363.14-3.045.168-3.958.168-11.668 0-7.71-.029-8.623-.168-11.668-.128-2.817-.598-4.345-.995-5.363-.525-1.347-1.147-2.31-2.157-3.32a8.958 8.958 0 0 0-3.321-2.16c-1.018-.397-2.546-.867-5.363-.995ZM27.812 40.4a9.631 9.631 0 0 0 10.5-15.713 9.635 9.635 0 0 0-16.03 9.609 9.636 9.636 0 0 0 5.53 6.104Zm-6.807-19.396a14.844 14.844 0 0 1 20.99 0 14.844 14.844 0 0 1 0 20.99 14.842 14.842 0 0 1-20.99-20.99Zm28.628-2.136a3.51 3.51 0 1 0-4.817-5.107 3.51 3.51 0 0 0 4.817 5.107Z" fill="#19191B"/></svg>