<svg width="26" height="25" fill="none" xmlns="http://www.w3.org/2000/svg"><path d="M4.822 3.324h16.396a2.07 2.07 0 0 1 1.449.588c.384.377.6.888.6 1.421v6.03a9.95 9.95 0 0 1-3.001 7.104 10.352 10.352 0 0 1-7.246 2.943c-1.346 0-2.678-.26-3.922-.765a10.263 10.263 0 0 1-3.324-2.178 9.95 9.95 0 0 1-3.002-7.105V5.333c0-.533.216-1.044.6-1.42a2.07 2.07 0 0 1 1.45-.59v0Z" stroke="#D45555" stroke-width="2" stroke-linecap="round" stroke-linejoin="round"/><path d="m8.92 10.357 4.1 4.02 4.099-4.02" stroke="#D45555" stroke-width="2" stroke-linecap="round" stroke-linejoin="round"/></svg>