<svg width="14" height="14" fill="none" xmlns="http://www.w3.org/2000/svg"><g clip-path="url(#a)"><path d="m13.879 13.248-4.187-4.28a5.34 5.34 0 0 0 1.252-3.5c0-.993-.24-1.909-.72-2.747A5.353 5.353 0 0 0 8.26.73 5.248 5.248 0 0 0 5.554 0c-.974 0-1.873.243-2.7.73A5.368 5.368 0 0 0 .896 2.72a5.435 5.435 0 0 0-.72 2.748c0 .993.24 1.91.72 2.748a5.368 5.368 0 0 0 1.959 1.99 5.225 5.225 0 0 0 2.706.73c1.337 0 2.512-.446 3.527-1.34l4.173 4.266c.09.091.193.137.31.137a.411.411 0 0 0 .302-.13.432.432 0 0 0 .128-.314.42.42 0 0 0-.121-.308Zm-8.32-3.172a4.374 4.374 0 0 1-2.281-.622 4.56 4.56 0 0 1-1.65-1.681 4.562 4.562 0 0 1-.605-2.304c0-.83.202-1.598.606-2.304a4.56 4.56 0 0 1 1.649-1.682A4.362 4.362 0 0 1 5.553.861c.821 0 1.58.208 2.275.622a4.56 4.56 0 0 1 1.649 1.682 4.56 4.56 0 0 1 .606 2.304 4.618 4.618 0 0 1-.465 2.023 5.117 5.117 0 0 1-.531.855 4.25 4.25 0 0 1-.7.718c-.26.21-.539.39-.835.54-.296.15-.615.266-.956.348a4.418 4.418 0 0 1-1.036.123Z" fill="#19191B"/></g><defs><clipPath id="a"><path fill="#fff" d="M0 0h14v14H0z"/></clipPath></defs></svg>