<svg width="63" height="63" fill="none" xmlns="http://www.w3.org/2000/svg"><path d="M62.063 12.96a24.488 24.488 0 0 1-7.022 1.924 12.258 12.258 0 0 0 5.376-6.767 24.411 24.411 0 0 1-7.765 2.966 12.233 12.233 0 0 0-20.837 11.156A34.725 34.725 0 0 1 6.61 9.461a12.223 12.223 0 0 0-1.654 6.147 12.232 12.232 0 0 0 5.439 10.18 12.197 12.197 0 0 1-5.539-1.53v.157a12.232 12.232 0 0 0 9.81 11.991 12.3 12.3 0 0 1-5.523.21 12.235 12.235 0 0 0 11.424 8.49 24.538 24.538 0 0 1-15.189 5.236c-.975 0-1.95-.056-2.919-.17a34.585 34.585 0 0 0 18.743 5.494c22.496 0 34.794-18.633 34.794-34.792 0-.525-.013-1.055-.036-1.58a24.861 24.861 0 0 0 6.097-6.327l.006-.007Z" fill="#19191B"/></svg>