<svg width="35" height="38" fill="none" xmlns="http://www.w3.org/2000/svg"><path d="M17.5 20.188c-4.623 0-8.385-4.085-8.385-9.105 0-5.019 3.762-9.104 8.385-9.104 4.623 0 8.385 4.085 8.385 9.104 0 5.02-3.762 9.104-8.385 9.104Zm0-15.834c-1.643.004-3.217.715-4.378 1.976-1.162 1.26-1.816 2.97-1.82 4.753.004 1.784.658 3.493 1.82 4.754 1.161 1.261 2.735 1.971 4.378 1.976 1.643-.005 3.217-.715 4.378-1.976 1.162-1.261 1.816-2.97 1.82-4.754-.004-1.783-.658-3.492-1.82-4.753-1.161-1.261-2.735-1.972-4.378-1.976Zm12.527 31.667c-.598 0-1.094-.538-1.094-1.188 0-5.462-5.133-9.895-11.433-9.895S6.067 29.37 6.067 34.832c0 .65-.496 1.188-1.094 1.188-.598 0-1.094-.538-1.094-1.188 0-6.76 6.11-12.27 13.621-12.27 7.51 0 13.62 5.51 13.62 12.27 0 .65-.495 1.188-1.093 1.188Z" fill="#D45555"/></svg>