<svg width="63" height="63" fill="none" xmlns="http://www.w3.org/2000/svg"><g clip-path="url(#a)"><path d="M41.17 0H21.83C4.184 0 0 4.184 0 21.831v19.34c0 17.647 4.184 21.831 21.832 21.831H41.17c17.648 0 21.832-4.184 21.832-21.832V21.831C63.001 4.184 58.776 0 41.17 0Zm9.69 44.943h-4.574c-1.732 0-2.266-1.375-5.382-4.532-2.707-2.625-3.906-2.973-4.574-2.973-.943 0-1.21.265-1.21 1.559v4.132c0 1.109-.349 1.774-3.282 1.774-4.851 0-10.234-2.933-14.008-8.398-5.692-8.01-7.249-14.008-7.249-15.248 0-.668.266-1.292 1.548-1.292h4.583c1.16 0 1.6.534 2.051 1.774 2.266 6.542 6.04 12.273 7.598 12.273.575 0 .84-.266.84-1.732v-6.757c-.175-3.117-1.815-3.384-1.815-4.49 0-.534.441-1.068 1.148-1.068h7.207c.975 0 1.333.534 1.333 1.681v9.116c0 .984.441 1.333.707 1.333.575 0 1.067-.349 2.132-1.416 3.292-3.691 5.65-9.383 5.65-9.383.308-.667.841-1.291 2-1.291h4.584c1.374 0 1.681.706 1.374 1.69-.575 2.666-6.184 10.583-6.184 10.583-.482.799-.667 1.147 0 2.04.493.667 2.093 2.05 3.158 3.291 1.96 2.225 3.465 4.091 3.867 5.383.45 1.281-.215 1.949-1.508 1.949l.006.002Z" fill="#19191B"/></g><defs><clipPath id="a"><path fill="#fff" d="M0 0h63v63H0z"/></clipPath></defs></svg>