<svg width="63" height="63" fill="none" xmlns="http://www.w3.org/2000/svg"><g clip-path="url(#a)"><path d="M61.688 17.081a7.313 7.313 0 0 0-2.011-3.334 8.005 8.005 0 0 0-3.513-1.947c-4.93-1.3-24.68-1.3-24.68-1.3a201.135 201.135 0 0 0-24.648 1.234 8.296 8.296 0 0 0-3.513 1.995 7.603 7.603 0 0 0-2.042 3.35A76.362 76.362 0 0 0 0 31.5a76.223 76.223 0 0 0 1.281 14.422 7.42 7.42 0 0 0 2.034 3.331 8.125 8.125 0 0 0 3.52 1.95c4.996 1.297 24.65 1.297 24.65 1.297a201.48 201.48 0 0 0 24.68-1.234 8.006 8.006 0 0 0 3.512-1.947 7.299 7.299 0 0 0 2.008-3.334A74.492 74.492 0 0 0 63 31.56a69.761 69.761 0 0 0-1.313-14.483v.003ZM25.205 40.488V22.515l16.433 8.988-16.433 8.985Z" fill="#19191B"/></g><defs><clipPath id="a"><path fill="#fff" d="M0 0h63v63H0z"/></clipPath></defs></svg>